# xmcd
#
# Track frame offsets: 
#        150
#        13305
#        26520
#        42215
#        58532
#        88865
#        115602
#        127810
#        142012
#        163200
#        178307
#        190962
#        212797
#        226142
#        245322
#        265182
#        279757
#        296015
#        312262
#        327465
#        340852
#
# Disc length: 4681 seconds
#
# Revision: 6
# Processed by: cddbd v1.5.2PL0 Copyright (c) Steve Scherf et al.
# Submitted via: ExactAudioCopy v1.3
#
DISCID=35124715
DTITLE=Poco - The Essential Collection (1975 - 1982)
DYEAR=1997
DGENRE=Country Rock
TTITLE0=Keep On Tryin'
TTITLE1=Makin' Love
TTITLE2=Lovin' Arms
TTITLE3=Flyin' Solo
TTITLE4=Rose Of Cimarron
TTITLE5=Too Many Nights Too Long
TTITLE6=Tulsa Turnaround
TTITLE7=Stealaway
TTITLE8=Indian Summer
TTITLE9=Living In The Band
TTITLE10=Me And You
TTITLE11=Heart Of The Night
TTITLE12=Crazy Love
TTITLE13=Legend
TTITLE14=Midnight Rain
TTITLE15=Under The Gun
TTITLE16=Widowmaker
TTITLE17=Sometimes (We Are All We Got)
TTITLE18=The Price Of Love
TTITLE19=Ashes
TTITLE20=Feudin'
EXTD=
EXTT0=
EXTT1=
EXTT2=
EXTT3=
EXTT4=
EXTT5=
EXTT6=
EXTT7=
EXTT8=
EXTT9=
EXTT10=
EXTT11=
EXTT12=
EXTT13=
EXTT14=
EXTT15=
EXTT16=
EXTT17=
EXTT18=
EXTT19=
EXTT20=
PLAYORDER=
